 <svg  version="1.0" xmlns="http://www.w3.org/2000/svg"  width="225.000000pt" height="225.000000pt" viewBox="0 0 225.000000 225.000000"  preserveAspectRatio="xMidYMid meet">  <g transform="translate(0.000000,225.000000) scale(0.100000,-0.100000)" fill="#eaa939" stroke="none"> <path d="M798 2228 c-294 -21 -577 -117 -699 -238 -111 -109 -108 -243 8 -351 255 -238 933 -312 1406 -154 180 60 300 143 352 244 23 44 27 60 22 103 -16 135 -157 250 -401 327 -181 58 -457 86 -688 69z m406 -53 c263 -35 446 -102 559 -205 152 -138 93 -290 -156 -405 -180 -83 -383 -120 -662 -119 -377 1 -659 80 -812 229 -87 85 -98 138 -50 232 61 118 309 227 607 268 132 18 376 18 514 0z"/> <path d="M16 1523 c4 -150 9 -196 23 -228 20 -43 97 -124 140 -146 14 -8 46 -26 71 -40 68 -39 251 -96 365 -113 166 -26 415 -34 548 -17 50 6 63 13 105 53 26 26 63 52 82 60 34 13 93 11 132 -6 13 -6 20 0 31 26 32 74 82 98 206 98 99 0 101 1 145 84 25 48 26 53 25 235 -1 127 -4 173 -9 144 -18 -88 -84 -163 -205 -232 -116 -67 -351 -129 -555 -146 -59 -5 -282 -6 -314 0 -17 2 -60 7 -96 10 -246 19 -512 123 -621 243 -37 41 -50 64 -59 107 -6 30 -13 55 -15 55 -3 0 -2 -84 1 -187z m100 -53 c165 -136 485 -221 834 -222 354 0 642 75 835 219 l60 44 3 -65 c4 -80 -10 -135 -43 -170 -22 -24 -31 -26 -102 -26 -91 0 -141 -19 -192 -74 -32 -33 -39 -36 -93 -36 -68 0 -117 -22 -179 -77 -49 -44 -86 -51 -279 -52 -334 -2 -624 71 -797 200 -72 54 -104 112 -111 199 -4 62 0 100 12 100 2 0 26 -18 52 -40z"/> <path d="M16 1086 c5 -182 6 -192 31 -239 52 -95 191 -182 385 -241 64 -19 154 -40 200 -46 126 -17 323 -29 368 -23 39 5 40 7 40 44 0 71 40 134 102 160 21 8 27 16 22 28 -3 9 -8 34 -11 56 l-5 40 -197 -2 c-234 -2 -377 17 -545 72 -171 56 -291 130 -345 212 -17 26 -31 58 -31 72 0 14 -5 33 -10 41 -6 10 -8 -53 -4 -174z m196 -114 c165 -95 431 -152 728 -157 193 -4 199 -7 127 -84 -28 -30 -50 -66 -58 -92 -7 -24 -16 -48 -20 -53 -12 -14 -199 -7 -338 14 -310 45 -555 176 -590 314 -12 48 -15 149 -5 159 3 3 28 -12 55 -33 27 -21 72 -52 101 -68z"/> <path d="M1655 988 c-11 -92 -16 -108 -33 -108 -9 -1 -33 -9 -52 -19 l-34 -19 -57 44 c-32 24 -61 44 -66 44 -5 0 -28 -20 -52 -44 l-44 -45 39 -56 c21 -31 42 -59 46 -61 4 -3 -1 -22 -12 -42 -11 -20 -20 -45 -20 -54 0 -10 -8 -19 -17 -20 -10 0 -22 -2 -28 -3 -5 -1 -34 -5 -62 -9 l-53 -8 0 -68 0 -67 76 -12 c55 -9 77 -17 80 -29 3 -9 12 -30 20 -45 20 -40 18 -45 -30 -111 l-43 -59 43 -43 c24 -24 48 -44 55 -44 12 0 65 37 102 71 18 16 22 16 70 -7 58 -26 63 -35 72 -116 5 -49 9 -58 26 -58 19 0 20 4 14 58 -12 95 -27 119 -90 147 -31 14 -61 25 -68 25 -7 0 -37 -15 -67 -34 -39 -25 -59 -32 -71 -25 -29 15 -28 34 8 92 l35 57 -18 51 c-24 66 -55 96 -107 104 -49 8 -67 21 -67 46 0 22 21 34 74 42 50 8 71 28 96 93 22 59 19 78 -24 141 -18 26 -22 41 -16 53 16 30 35 29 90 -6 65 -41 80 -42 145 -6 42 23 52 34 64 72 24 79 30 90 50 90 25 0 37 -17 45 -66 9 -51 42 -87 101 -110 50 -19 64 -15 142 36 l32 21 21 -21 21 -21 -21 -32 c-51 -78 -55 -92 -35 -142 26 -70 52 -94 114 -105 81 -15 101 -13 101 9 0 16 -10 21 -57 26 -87 10 -90 12 -116 68 l-24 52 44 57 c23 31 43 62 43 68 0 6 -20 31 -44 54 l-43 43 -65 -47 -64 -47 -34 19 c-19 10 -40 18 -48 18 -16 0 -28 31 -36 103 l-7 57 -69 0 -68 0 -7 -52z"/> <path d="M17 656 c4 -164 7 -195 25 -233 92 -195 560 -344 1006 -318 109 6 123 9 116 24 -17 41 -20 91 -7 121 17 41 18 38 -21 54 -35 15 -82 68 -88 101 -3 18 -12 20 -128 21 -215 3 -370 27 -524 80 -111 38 -155 59 -233 111 -81 53 -116 101 -141 193 -7 25 -8 -22 -5 -154z m204 -120 c166 -91 459 -155 709 -156 l75 0 53 -60 c51 -58 53 -61 50 -112 l-3 -53 -45 -8 c-57 -11 -260 -1 -402 19 -272 38 -501 145 -579 270 -14 23 -22 58 -26 108 -8 109 -3 116 54 68 27 -22 78 -56 114 -76z"/> <path d="M1662 727 c-53 -20 -103 -66 -128 -121 -30 -64 -30 -108 0 -171 70 -152 251 -181 357 -56 62 72 73 145 35 227 -49 106 -162 158 -264 121z m135 -42 c48 -20 71 -41 94 -87 59 -115 -30 -258 -161 -258 -186 0 -245 256 -78 339 51 25 95 27 145 6z"/> <path d="M2141 475 c-59 -14 -73 -27 -102 -93 -25 -57 -25 -59 15 -122 26 -41 32 -59 25 -72 -14 -26 -42 -22 -96 12 -26 16 -52 30 -59 30 -24 0 -102 -39 -122 -60 -20 -22 -51 -155 -38 -167 14 -14 34 9 41 49 4 23 9 46 10 51 1 4 3 16 4 26 1 13 18 27 54 44 l52 23 60 -43 c32 -24 62 -43 65 -43 3 0 25 20 49 44 l44 45 -39 56 c-21 31 -42 59 -46 61 -4 3 1 23 12 44 11 22 20 46 20 55 0 9 10 15 25 16 14 1 28 2 33 3 4 2 28 6 55 10 37 7 47 12 47 27 0 23 -28 24 -109 4z"/> </g> </svg> 