<?xml version="1.0" standalone="no"?>
<!DOCTYPE svg PUBLIC "-//W3C//DTD SVG 20010904//EN"
 "http://www.w3.org/TR/2001/REC-SVG-20010904/DTD/svg10.dtd">
<svg version="1.0" xmlns="http://www.w3.org/2000/svg"
 width="300.000000pt" height="249.000000pt" viewBox="0 0 300.000000 249.000000"
 preserveAspectRatio="xMidYMid meet">
<metadata>
Created by potrace 1.10, written by Peter Selinger 2001-2011
</metadata>
<g transform="translate(0.000000,249.000000) scale(0.100000,-0.100000)"
fill="#e6af19" stroke="none">
<path d="M1283 2463 c-12 -2 -46 -28 -75 -57 -93 -93 -269 -161 -443 -173 -80
-5 -98 -3 -166 21 -41 14 -93 26 -114 26 -60 0 -121 -35 -151 -86 -24 -40 -26
-51 -19 -107 4 -34 8 -92 9 -129 1 -64 -1 -69 -33 -102 -20 -20 -59 -45 -90
-57 -91 -33 -138 -66 -167 -114 -23 -40 -26 -54 -22 -119 4 -86 28 -126 108
-179 87 -58 111 -122 70 -189 -29 -48 -26 -103 6 -133 42 -39 88 -38 170 5 89
47 136 37 219 -50 28 -28 76 -67 108 -86 31 -20 62 -44 67 -54 14 -27 12 -81
-5 -110 -33 -58 -3 -139 62 -166 48 -20 88 -12 148 31 116 82 232 69 354 -39
82 -73 163 -80 251 -22 99 65 91 223 -15 283 -59 33 -149 32 -201 -3 -21 -14
-49 -36 -61 -49 -38 -40 -112 -70 -173 -68 -72 1 -133 29 -198 90 -63 60 -65
79 -17 170 32 61 35 72 34 149 -1 63 3 90 17 114 19 32 85 70 122 70 33 0 71
18 97 46 20 21 25 38 25 76 0 43 -4 54 -30 78 -55 51 -135 52 -184 1 -22 -23
-29 -43 -36 -95 -14 -113 -47 -143 -171 -157 -92 -11 -100 -14 -187 -80 -69
-54 -114 -67 -167 -49 -45 15 -111 77 -120 113 -12 45 2 74 69 146 82 90 97
137 72 225 -38 133 -41 160 -20 202 10 21 35 51 55 67 l37 29 46 -20 c64 -29
86 -68 86 -157 0 -89 20 -126 83 -150 56 -21 99 -10 143 36 23 24 29 39 29 74
0 62 -28 95 -101 121 -32 11 -69 26 -82 33 -36 19 -62 70 -62 123 0 39 6 54
31 83 42 47 140 101 252 138 80 26 107 30 202 31 61 0 129 -4 153 -8 58 -12
113 13 136 60 20 43 20 67 2 103 -26 49 -93 77 -153 64z m86 -38 c34 -17 55
-62 45 -99 -21 -87 -167 -87 -188 0 -20 78 67 139 143 99z m-175 -111 c9 -24
0 -31 -35 -26 l-33 5 23 18 c28 23 37 24 45 3z m-637 -91 c89 -42 99 -157 19
-218 -64 -49 -165 -31 -206 38 -70 114 61 240 187 180z m169 -23 c29 0 44 -4
44 -12 -1 -13 -73 -68 -89 -68 -5 0 -11 12 -14 28 -3 15 -9 36 -13 46 -6 16
-4 18 10 13 10 -4 38 -7 62 -7z m-93 -252 l6 -37 -36 17 -35 17 28 22 c16 12
29 21 30 20 1 -1 4 -19 7 -39z m-200 -46 c-34 -31 -66 -112 -52 -133 15 -24
10 -29 -22 -24 -81 14 -97 40 -53 83 40 39 54 69 54 118 l0 34 51 -26 51 -25
-29 -27z m271 -58 c13 -5 14 -9 5 -20 -16 -20 -29 -17 -29 6 0 22 1 23 24 14z
m127 -51 c82 -49 47 -164 -51 -167 -35 -1 -47 4 -71 32 -33 37 -37 76 -11 108
37 46 85 55 133 27z m-497 -87 c45 -34 66 -74 66 -126 0 -102 -103 -183 -203
-161 -138 32 -185 185 -85 278 35 33 67 43 130 40 43 -2 64 -10 92 -31z m795
-181 c33 -16 41 -33 41 -80 0 -44 -47 -85 -97 -85 -46 0 -93 45 -93 90 0 43
47 90 90 90 17 0 44 -7 59 -15z m-835 -154 c4 0 1 -12 -8 -26 -9 -13 -16 -42
-16 -65 0 -58 -26 -54 -33 6 -3 28 -12 50 -23 59 -18 13 -18 14 6 23 21 8 37
9 74 3z m684 -42 c-28 -22 -32 -19 -17 15 10 21 15 24 26 14 12 -10 11 -14 -9
-29z m-61 -83 l-13 -37 -28 22 -29 23 39 17 c21 9 40 15 42 14 1 -1 -4 -19
-11 -39z m-74 -42 c36 -27 61 -85 52 -122 -31 -142 -238 -150 -275 -11 -32
118 121 209 223 133z m-540 -6 c50 -26 60 -69 26 -112 -29 -37 -89 -37 -118 0
-33 42 -24 84 24 112 26 15 41 15 68 0z m267 -90 c0 -31 0 -31 -21 -12 -19 17
-19 19 -3 31 24 17 24 17 24 -19z m275 -200 c1 -18 3 -42 5 -53 4 -16 -1 -21
-22 -23 -22 -3 -28 1 -28 15 0 10 -7 31 -15 47 -19 35 -19 34 3 39 47 12 57 8
57 -25z m682 -85 c25 -12 41 -29 55 -60 25 -57 17 -101 -28 -144 -32 -31 -40
-34 -99 -34 -57 0 -67 3 -94 29 -38 36 -53 85 -40 128 10 35 44 76 74 88 33
14 95 11 132 -7z m-592 -48 c74 -73 -20 -189 -113 -141 -58 30 -68 85 -26 135
22 26 33 31 70 31 34 0 51 -6 69 -25z m340 -58 l0 -63 -37 25 c-37 26 -50 51
-25 51 8 0 24 11 37 25 13 14 24 25 24 25 1 0 1 -28 1 -63z m-239 -16 c-4 -6
-15 -15 -25 -20 -16 -9 -18 -5 -19 36 l0 46 25 -26 c14 -14 22 -30 19 -36z"/>
<path d="M1970 2378 c-90 -48 -119 -165 -62 -244 16 -21 36 -45 46 -53 61 -50
59 -139 -4 -196 -31 -28 -50 -68 -50 -106 0 -23 10 -42 40 -71 39 -39 42 -40
95 -36 61 5 90 25 112 76 16 39 9 75 -24 120 -38 51 -47 95 -28 137 23 48 40
58 88 57 153 -6 269 -126 271 -277 0 -74 -28 -133 -82 -170 -20 -14 -80 -39
-133 -56 -115 -36 -166 -74 -198 -150 -27 -62 -23 -117 15 -191 83 -164 353
-154 433 17 28 60 27 120 -5 202 -36 95 -32 193 10 247 15 21 39 42 52 48 21
10 28 8 53 -16 69 -66 104 -191 77 -274 -19 -56 -15 -88 18 -142 16 -27 21
-51 21 -107 0 -63 -3 -76 -30 -115 -17 -23 -58 -62 -91 -85 -42 -29 -69 -57
-87 -92 -88 -161 -361 -270 -551 -219 -116 31 -222 -69 -186 -176 12 -37 47
-71 121 -116 78 -47 110 -150 74 -237 -8 -19 -15 -44 -15 -54 0 -84 120 -129
177 -66 49 53 37 108 -36 161 -148 105 -94 317 106 423 131 70 269 95 363 68
93 -27 136 -29 185 -11 52 20 90 61 106 115 16 52 6 96 -36 161 -83 129 -73
223 37 327 62 59 76 96 54 146 -15 37 -33 53 -97 90 -54 31 -102 97 -124 171
-19 62 -19 77 1 146 14 51 14 60 1 93 -23 54 -58 71 -157 78 -99 7 -145 27
-208 90 -30 31 -47 59 -58 99 -46 160 -83 202 -187 208 -51 3 -70 -1 -107 -20z
m171 -41 c42 -28 59 -60 59 -113 0 -134 -206 -172 -264 -50 -21 44 -20 73 2
115 37 69 137 92 203 48z m120 -213 l31 -46 -53 7 c-30 4 -57 9 -62 12 -6 4
40 73 49 73 2 0 17 -21 35 -46z m-182 -94 c-12 -23 -21 -58 -21 -80 1 -36 -2
-40 -24 -40 -22 0 -23 2 -13 21 11 21 8 73 -6 117 -7 21 -5 22 39 22 l46 0
-21 -40z m388 -81 c-12 -19 -12 -19 -29 2 -26 31 -22 39 12 28 26 -9 28 -13
17 -30z m166 1 c49 -39 42 -116 -14 -145 -54 -29 -117 -8 -139 45 -15 36 0 82
34 105 29 21 89 19 119 -5z m-541 -99 c66 -59 28 -151 -63 -151 -31 0 -47 7
-70 29 -31 32 -36 62 -15 100 31 56 99 66 148 22z m426 -79 c9 -7 8 -13 -8
-27 -20 -18 -20 -18 -20 8 0 28 6 32 28 19z m122 -29 c0 -25 -1 -26 -20 -8
-21 19 -18 35 6 35 9 0 14 -10 14 -27z m-207 -210 l4 -71 -38 25 c-21 14 -55
31 -75 38 l-38 13 50 25 c27 14 58 32 69 41 23 17 22 21 28 -71z m315 -35
c-22 -13 -28 -9 -28 19 0 26 0 26 20 8 16 -14 17 -20 8 -27z m-394 -18 c147
-74 120 -281 -41 -319 -72 -18 -126 -1 -180 54 -53 56 -65 111 -35 176 10 24
28 51 38 60 61 52 148 64 218 29z m506 -35 c56 -56 12 -150 -71 -150 -34 0
-46 6 -70 33 -36 40 -37 71 -4 111 40 47 100 50 145 6z m-88 -210 l-17 -23 -6
21 c-8 29 -3 36 21 30 18 -5 19 -6 2 -28z m-27 -210 c13 -43 13 -46 -3 -41 -9
2 -32 7 -50 11 l-32 7 31 39 c17 22 33 38 36 35 2 -2 11 -25 18 -51z m-5 -77
c86 -45 103 -137 36 -204 -59 -59 -162 -55 -209 9 -36 48 -41 81 -18 133 16
35 29 49 63 64 55 25 74 25 128 -2z m-201 -218 c1 -3 -38 -6 -86 -7 -86 -2
-87 -1 -63 15 14 9 43 34 65 54 l40 37 22 -47 c12 -26 22 -49 22 -52z m-586
-84 c69 -29 94 -95 57 -154 -22 -36 -54 -52 -107 -52 -27 0 -43 8 -69 34 -46
46 -48 101 -4 145 26 26 40 32 83 40 4 0 22 -5 40 -13z m202 -14 c-6 -5 -28
-23 -51 -40 l-41 -31 -16 33 c-9 19 -13 37 -10 40 4 3 33 6 67 6 33 0 56 -4
51 -8z m-165 -216 c0 -3 -4 -16 -10 -31 -10 -26 -10 -26 -34 -8 l-25 18 27 12
c29 13 42 16 42 9z m44 -205 c3 -5 -1 -11 -9 -15 -15 -6 -29 7 -18 18 9 9 21
8 27 -3z m47 -41 c21 0 49 -42 49 -73 0 -40 -23 -64 -68 -73 -26 -5 -36 -1
-62 24 -16 17 -30 39 -30 49 0 40 55 88 88 77 8 -2 18 -4 23 -4z"/>
<path d="M1480 2358 c14 -11 37 -25 52 -30 33 -12 27 -28 -10 -28 -15 -1 -40
-6 -55 -13 -24 -10 -12 -12 85 -12 125 -1 187 -16 271 -66 26 -16 47 -27 47
-24 0 13 -52 51 -100 73 l-55 26 62 7 c34 4 74 15 90 24 27 15 27 16 3 10
-109 -25 -254 -13 -349 31 -65 29 -74 30 -41 2z"/>
<path d="M1186 2080 c-72 -22 -134 -91 -151 -167 -16 -78 39 -174 125 -219 74
-38 191 -17 260 48 13 12 27 22 30 21 7 -2 9 10 16 114 l6 82 -53 53 c-72 71
-147 93 -233 68z m144 -62 c65 -33 93 -79 88 -146 -8 -90 -70 -146 -163 -146
-147 0 -223 171 -119 266 58 52 125 61 194 26z"/>
<path d="M1499 1916 c12 -13 50 -37 84 -52 61 -28 62 -28 32 -35 -16 -4 -51
-13 -77 -20 -26 -6 -52 -17 -58 -24 -8 -10 1 -10 37 2 95 31 234 18 358 -33
18 -7 18 -6 7 9 -8 9 -33 24 -58 33 -50 19 -49 34 4 34 20 1 48 8 62 16 l25
15 -29 -6 c-107 -23 -281 7 -360 60 -46 31 -56 32 -27 1z"/>
<path d="M1633 1609 c-38 -11 -83 -62 -83 -93 0 -41 20 -82 49 -99 40 -24 112
-22 144 3 97 76 12 223 -110 189z m98 -48 c17 -18 29 -40 29 -56 0 -38 -50
-85 -90 -85 -40 0 -90 47 -90 85 0 38 50 85 90 85 22 0 41 -9 61 -29z"/>
<path d="M1480 1519 c-58 -21 -176 -29 -240 -16 l-35 8 39 -22 38 -21 -30 -18
c-53 -33 -42 -37 31 -12 62 21 85 24 172 20 96 -4 99 -4 62 10 l-38 15 33 28
c39 33 39 33 -32 8z"/>
<path d="M1981 1346 c-32 -34 -145 -91 -211 -106 -30 -7 -88 -13 -129 -13 -53
1 -69 -2 -57 -9 9 -5 52 -9 94 -9 l77 0 -69 -37 c-38 -20 -76 -48 -84 -61 -14
-20 -11 -20 31 8 77 53 150 74 257 75 52 0 110 -2 128 -6 19 -4 31 -4 28 1
-12 19 -110 34 -183 28 l-74 -6 68 33 c72 35 127 76 144 107 13 26 7 24 -20
-5z"/>
<path d="M1362 1250 c-101 -62 -93 -194 14 -241 103 -46 221 32 207 136 -14
102 -133 159 -221 105z m128 -25 c33 -17 60 -61 60 -99 0 -14 -14 -41 -31 -61
-28 -31 -37 -35 -79 -35 -88 0 -140 71 -105 144 28 58 98 81 155 51z"/>
<path d="M2024 1026 c-123 -54 -84 -226 51 -226 136 0 174 174 49 226 -41 17
-60 17 -100 0z m115 -42 c25 -21 31 -33 31 -65 0 -85 -98 -122 -162 -61 -39
36 -38 84 1 123 39 38 87 39 130 3z"/>
<path d="M1884 894 c-58 -40 -136 -64 -209 -64 -36 0 -46 -3 -35 -10 8 -5 34
-10 58 -10 23 0 42 -3 42 -6 0 -3 -14 -17 -30 -31 -55 -45 -55 -66 0 -25 54
41 127 72 175 73 17 0 39 4 50 9 15 6 7 9 -30 10 l-50 1 31 27 c29 26 61 63
53 61 -2 0 -27 -16 -55 -35z"/>
<path d="M1613 538 c2 -32 2 -58 1 -58 -2 0 -18 9 -36 20 -51 31 -66 23 -19
-10 45 -33 78 -79 88 -122 8 -42 26 -35 19 7 -7 38 -1 42 28 20 40 -31 44 -14
6 22 -48 43 -59 61 -77 128 l-13 50 3 -57z"/>
<path d="M1745 368 c-5 -5 -25 -18 -43 -29 -115 -68 -21 -248 110 -210 81 24
117 127 66 186 -27 30 -118 67 -133 53z m70 -42 c64 -27 77 -106 24 -150 -35
-30 -67 -33 -109 -11 -55 29 -66 85 -25 134 14 16 36 32 48 34 12 2 23 5 25 6
1 0 18 -5 37 -13z"/>
</g>
</svg>
