<?xml version="1.0" standalone="no"?>
<!DOCTYPE svg PUBLIC "-//W3C//DTD SVG 20010904//EN"
 "http://www.w3.org/TR/2001/REC-SVG-20010904/DTD/svg10.dtd">
<svg version="1.0" xmlns="http://www.w3.org/2000/svg"
 width="250.000000pt" height="250.000000pt" viewBox="0 0 250.000000 250.000000"
 preserveAspectRatio="xMidYMid meet">
<metadata>
Created by potrace 1.10, written by Peter Selinger 2001-2011
</metadata>
<g transform="translate(0.000000,300.000000) scale(0.100000,-0.100000)"
fill="#dfa320" stroke="none">
<path d="M2670 2908 l0 -48 -95 0 -95 0 0 -45 0 -44 -92 -3 -93 -3 3 -47 4
-48 -96 0 -96 0 0 -140 0 -140 -44 0 c-53 0 -104 -32 -128 -80 -15 -28 -18
-62 -18 -175 0 -96 -4 -145 -12 -153 -7 -7 -28 -12 -48 -12 -34 0 -36 2 -48
46 -15 56 -59 121 -107 160 -34 28 -35 30 -24 62 27 78 -18 218 -93 291 -38
38 -41 44 -43 108 -8 172 -134 300 -306 311 -117 7 -201 -29 -268 -114 l-35
-43 -17 28 c-21 34 -70 76 -123 104 -34 18 -58 22 -136 22 -81 0 -102 -4 -145
-24 -110 -55 -179 -159 -182 -278 -1 -70 -3 -73 -40 -107 -22 -19 -52 -59 -69
-88 -27 -49 -29 -61 -29 -155 0 -57 -3 -103 -6 -103 -16 0 -87 -82 -109 -126
-21 -42 -25 -62 -25 -144 0 -86 3 -100 29 -148 17 -29 48 -69 70 -89 l39 -36
1 -96 c1 -113 23 -169 93 -237 40 -40 43 -45 43 -98 0 -120 76 -238 188 -293
46 -23 70 -28 132 -28 89 0 135 15 195 61 l45 34 0 -83 c0 -51 -5 -88 -12 -95
-9 -9 -103 -12 -360 -12 -386 0 -395 -1 -442 -62 -53 -71 -25 -172 59 -209 42
-19 68 -20 486 -19 l442 1 36 -35 c20 -19 49 -40 64 -45 18 -7 189 -11 488
-11 l459 0 0 -39 c0 -34 4 -40 30 -50 34 -11 36 -19 16 -47 -14 -18 -8 -26 76
-111 l91 -92 30 15 c16 9 30 14 31 12 1 -2 6 -16 11 -31 l10 -28 128 -2 c70
-1 127 1 127 5 0 4 4 18 10 33 9 25 11 25 38 11 l29 -15 91 90 92 91 -16 29
c-14 28 -14 30 11 39 15 6 29 10 33 10 4 0 6 57 5 127 l-2 128 -28 10 c-15 5
-29 10 -31 11 -2 1 3 15 12 31 l15 30 -92 91 c-87 87 -94 91 -112 77 -28 -21
-35 -19 -46 15 l-11 30 -129 0 -129 0 -6 -30 c-7 -34 -9 -35 -44 -15 -24 13
-28 11 -117 -77 -91 -91 -92 -92 -77 -119 19 -37 19 -36 -16 -44 -27 -6 -30
-10 -30 -48 l0 -42 -462 2 -462 3 -35 34 c-20 19 -49 40 -64 45 -18 7 -185 11
-476 11 -334 0 -450 3 -459 12 -16 16 -15 53 1 66 9 8 133 12 374 14 347 3
363 4 389 24 59 44 69 68 69 170 0 52 1 94 2 94 1 0 15 -12 30 -26 15 -15 48
-36 73 -48 43 -20 63 -21 405 -24 397 -3 403 -2 449 61 19 26 21 45 24 205 2
104 8 182 14 189 8 10 56 13 187 13 l176 0 -3 -48 c-16 -223 236 -321 352
-138 13 21 21 58 26 128 6 89 9 100 31 116 131 91 199 217 199 365 0 307 -317
508 -597 377 -233 -108 -312 -393 -172 -612 36 -56 89 -100 89 -74 0 9 -4 16
-10 16 -5 0 -10 7 -10 15 0 9 -7 18 -15 21 -8 4 -15 12 -15 20 0 8 -4 14 -9
14 -11 0 -57 95 -67 140 -10 46 -7 132 6 181 12 44 56 123 91 163 31 36 119
93 171 112 53 19 170 21 224 4 194 -62 321 -262 283 -445 -21 -103 -62 -166
-171 -262 -43 -37 -58 -82 -58 -174 l0 -67 -52 -51 c-51 -49 -55 -51 -109 -51
-49 0 -59 4 -90 34 -57 56 -62 65 -69 143 -5 46 -13 79 -21 84 -13 8 -193 13
-314 9 -81 -3 -83 -5 -87 -207 -2 -130 -6 -177 -15 -181 -7 -2 -13 -10 -13
-17 0 -7 -17 -24 -37 -37 -37 -23 -44 -23 -343 -26 -317 -4 -380 1 -450 39
-79 42 -103 50 -112 41 -6 -6 -13 -48 -17 -94 -6 -87 -27 -138 -57 -138 -8 0
-13 -4 -10 -9 12 -19 -41 -22 -359 -22 -209 1 -342 -3 -363 -10 -52 -17 -68
-67 -34 -109 l18 -22 440 -1 c444 0 484 -3 514 -38 8 -10 33 -27 55 -38 38
-20 54 -21 466 -21 235 0 441 3 458 6 23 5 33 14 38 33 3 14 19 39 35 56 22
23 27 35 23 57 -6 24 3 36 70 103 67 67 80 75 104 70 21 -4 33 1 56 24 29 29
34 30 118 31 53 0 87 -4 87 -10 0 -6 8 -14 18 -17 9 -4 23 -13 30 -20 7 -7 23
-11 35 -8 17 5 35 -6 72 -39 28 -25 53 -45 57 -46 14 0 46 -70 41 -89 -4 -15
4 -29 26 -50 30 -29 31 -31 31 -123 0 -91 -1 -95 -29 -122 -21 -20 -29 -37
-28 -60 1 -28 -9 -43 -64 -96 -52 -52 -70 -63 -96 -63 -22 1 -39 -8 -59 -28
-27 -28 -31 -29 -122 -29 -91 0 -94 1 -124 31 -24 24 -36 29 -57 24 -29 -6
-35 -2 -124 94 -39 41 -48 57 -43 76 4 14 0 29 -9 39 -8 8 -15 20 -15 26 0 6
-5 8 -10 5 -6 -4 -13 7 -16 24 -4 17 -13 36 -21 42 -10 9 -138 12 -466 14
-410 1 -455 3 -484 19 -18 10 -33 22 -33 26 0 5 -20 19 -44 30 -43 19 -64 20
-479 20 -366 0 -439 2 -463 15 -16 8 -26 15 -22 15 3 0 -7 13 -23 29 -16 16
-29 40 -29 53 0 28 26 69 63 98 27 22 34 22 381 24 424 1 396 -7 396 121 0 99
-9 113 -64 90 -20 -8 -36 -19 -36 -23 0 -4 -33 -18 -74 -30 -64 -20 -79 -22
-122 -12 -27 7 -63 18 -80 26 -34 15 -122 96 -145 134 -21 34 -39 109 -39 163
0 36 -7 51 -37 88 -21 24 -41 46 -45 47 -5 2 -8 10 -8 18 0 8 -4 14 -9 14 -19
0 -35 77 -34 160 l1 84 -48 53 c-131 143 -128 296 9 438 48 50 48 51 41 98
-15 100 15 187 94 271 42 45 46 55 47 100 2 108 28 168 100 230 126 107 282
102 408 -14 30 -28 62 -50 71 -50 9 0 34 18 55 41 65 66 118 91 208 97 72 4
82 2 142 -27 85 -42 141 -109 162 -196 2 -11 8 -48 12 -82 6 -54 12 -67 50
-108 66 -72 86 -124 86 -228 l0 -88 39 -42 c45 -48 96 -127 96 -149 0 -36 72
-66 113 -47 39 18 47 50 47 185 0 141 11 178 59 207 16 9 42 17 58 17 53 0 67
29 70 138 3 143 2 142 71 142 72 0 102 16 117 60 l12 35 69 3 c75 3 104 19
104 57 0 29 17 35 89 35 62 0 101 23 101 60 0 10 5 22 10 25 13 8 199 9 207 1
3 -3 7 -132 9 -286 l3 -280 -23 -15 c-18 -12 -65 -15 -257 -14 -129 0 -320 0
-426 0 -245 -1 -233 7 -233 -167 0 -67 -3 -135 -6 -153 -9 -44 -56 -89 -101
-96 -68 -12 -73 -16 -103 -81 -16 -36 -51 -89 -77 -117 l-47 -53 -1 -94 c-1
-109 -16 -147 -91 -228 -42 -45 -44 -49 -44 -110 0 -37 -7 -78 -17 -100 -9
-20 -17 -41 -17 -45 -1 -4 -6 -11 -13 -15 -13 -8 -36 -62 -29 -69 9 -9 50 44
74 97 19 39 26 73 27 121 1 63 3 67 41 102 76 68 120 203 95 292 -9 34 -8 41
7 49 52 28 132 149 132 201 0 17 7 20 49 20 54 0 88 19 125 69 19 25 21 43 23
179 2 132 5 154 20 165 14 10 115 12 466 12 l448 -1 0 326 0 326 -140 2 -141
2 0 -47z"/>
<path d="M548 2866 c-99 -47 -152 -137 -150 -256 l1 -75 -44 -32 c-119 -89
-132 -286 -25 -390 29 -28 89 -63 133 -77 34 -11 18 -29 -21 -22 -54 8 -91 29
-137 75 -60 62 -101 52 -157 -39 -51 -83 -34 -234 35 -309 41 -44 125 -76 197
-75 115 1 200 60 237 164 13 36 23 50 37 50 45 0 -20 -124 -101 -192 -55 -47
-137 -72 -208 -65 -28 3 -58 2 -65 -3 -7 -4 -15 -30 -18 -58 -6 -64 20 -149
58 -190 28 -31 95 -72 117 -72 7 0 13 -4 13 -10 0 -5 5 -9 12 -7 6 1 14 -6 16
-15 3 -14 -3 -18 -26 -18 -42 0 -56 -21 -49 -74 7 -46 49 -132 76 -154 9 -6
36 -21 60 -32 135 -62 290 -13 345 109 l26 58 2 769 3 769 -23 45 c-34 65 -59
89 -127 122 -71 34 -150 35 -217 4z m199 -26 c63 -28 91 -55 119 -115 l24 -50
0 -753 c0 -743 0 -753 -21 -797 -28 -60 -87 -111 -150 -129 -65 -20 -64 -20
-127 -1 -89 27 -153 101 -168 194 l-6 40 51 -6 51 -6 0 45 c0 45 -1 46 -37 53
-123 23 -215 142 -201 260 3 26 6 29 28 25 177 -34 356 89 388 268 l9 52 -47
0 c-47 0 -48 0 -55 -37 -41 -220 -335 -265 -438 -68 -45 88 -26 203 47 274
l32 31 13 -22 c32 -57 158 -127 229 -128 31 0 32 1 32 44 0 43 -1 44 -37 51
-128 24 -217 145 -199 269 10 62 56 129 111 161 44 26 46 29 38 59 -13 51 -8
128 12 169 54 114 191 166 302 117z"/>
<path d="M565 2693 c14 -58 73 -113 121 -113 18 0 21 6 20 45 -1 35 -5 46 -23
54 -13 6 -23 17 -23 26 0 11 -12 15 -51 15 -51 0 -51 0 -44 -27z m95 -61 c-17
-6 -54 33 -45 47 4 8 15 3 32 -16 17 -18 22 -28 13 -31z"/>
<path d="M454 2421 c-31 -14 -47 -30 -64 -65 -12 -26 -19 -50 -16 -53 4 -4 26
-7 51 -8 35 0 45 3 49 18 2 10 14 21 25 24 18 4 21 13 21 54 0 56 -5 58 -66
30z m24 -47 c-4 -21 -44 -48 -52 -36 -6 10 30 52 45 52 6 0 9 -7 7 -16z"/>
<path d="M560 2148 c0 -6 9 -31 21 -54 15 -32 32 -48 65 -65 25 -12 48 -18 51
-15 4 4 7 26 8 51 0 35 -3 45 -18 49 -10 2 -21 14 -24 25 -4 18 -13 21 -54 21
-31 0 -49 -4 -49 -12z m110 -79 c0 -15 -19 -10 -40 11 -21 21 -24 32 -13 44 8
8 53 -39 53 -55z"/>
<path d="M565 1473 c14 -57 74 -113 122 -113 15 0 18 8 18 45 0 36 -4 46 -22
54 -13 6 -23 17 -23 26 0 11 -12 15 -51 15 -51 0 -51 0 -44 -27z m87 -30 c21
-18 23 -33 6 -33 -14 0 -48 30 -48 42 0 13 22 9 42 -9z"/>
<path d="M700 1205 c0 -9 -11 -21 -25 -27 -21 -9 -25 -18 -25 -55 0 -38 3 -43
23 -43 49 0 108 54 122 113 7 27 7 27 -44 27 -39 0 -51 -4 -51 -15z m40 -34
c0 -18 -39 -56 -48 -46 -6 5 31 65 40 65 4 0 8 -9 8 -19z"/>
<path d="M1145 2876 c-80 -25 -122 -62 -162 -140 l-25 -48 2 -761 c1 -754 1
-760 22 -811 33 -78 80 -119 162 -141 60 -16 76 -17 128 -6 72 15 92 25 135
71 50 52 65 94 65 181 l0 76 54 48 c30 27 54 54 54 62 0 7 4 13 8 13 11 0 32
83 32 126 0 45 -20 124 -31 124 -5 0 -9 6 -9 13 0 15 -72 90 -90 93 -3 0 -16
5 -30 11 -14 6 -31 12 -39 15 -21 6 -23 38 -3 38 32 -1 104 -40 154 -85 28
-25 57 -45 66 -45 27 0 96 82 111 133 39 138 -42 296 -168 327 -155 39 -302
-39 -330 -174 -8 -37 -41 -45 -41 -10 0 62 89 171 170 207 28 12 78 22 133 26
61 5 91 11 97 21 18 28 11 113 -14 165 -37 79 -86 119 -179 149 -27 9 -16 29
21 38 42 11 50 44 27 117 -23 75 -92 143 -166 165 -62 19 -100 19 -154 2z
m181 -44 c67 -34 116 -106 127 -185 7 -43 13 -41 -65 -22 -28 7 -28 7 -28 -44
0 -47 2 -51 24 -51 63 0 157 -67 187 -135 11 -23 19 -64 19 -95 l0 -55 -87 0
c-100 -1 -151 -19 -219 -78 -49 -43 -100 -135 -109 -199 l-7 -48 51 0 51 0 0
33 c0 83 86 176 183 197 102 23 211 -31 258 -126 42 -87 21 -202 -49 -267 -28
-27 -30 -28 -43 -10 -46 62 -129 109 -226 128 l-33 7 0 -51 c0 -47 2 -51 24
-51 37 0 93 -27 136 -66 52 -47 74 -105 68 -188 -5 -79 -40 -135 -111 -180
-36 -22 -46 -34 -40 -45 4 -9 9 -43 11 -76 5 -86 -33 -157 -107 -202 -69 -41
-116 -49 -183 -29 -66 19 -120 63 -147 120 -21 43 -22 50 -22 804 0 857 -4
810 78 881 24 22 60 44 81 50 51 14 132 7 178 -17z"/>
<path d="M1170 2532 c0 -42 3 -51 21 -55 11 -3 23 -14 25 -24 4 -14 14 -18 52
-17 43 1 47 3 44 25 -6 47 -61 102 -114 115 -28 6 -28 6 -28 -44z m74 -15 c10
-7 17 -21 15 -30 -4 -16 -6 -16 -26 -2 -13 9 -23 23 -23 31 0 18 11 18 34 1z"/>
<path d="M1080 2345 c0 -34 5 -47 20 -55 11 -6 20 -17 20 -25 0 -11 13 -15 51
-15 51 0 51 0 44 28 -10 40 -32 70 -68 92 -53 33 -67 27 -67 -25z m85 -34 c3
-7 3 -16 0 -20 -11 -10 -40 16 -43 38 -3 20 -2 21 17 9 11 -7 23 -19 26 -27z"/>
<path d="M1360 1641 c0 -39 4 -51 15 -51 9 0 19 -9 23 -21 7 -17 18 -21 55
-23 52 -2 56 4 33 58 -15 36 -57 71 -99 81 -27 7 -27 7 -27 -44z m70 -10 c0
-5 7 -17 16 -26 22 -21 10 -31 -21 -17 -27 13 -35 52 -10 52 8 0 15 -4 15 -9z"/>
<path d="M1120 1597 c0 -37 4 -46 25 -55 14 -6 25 -18 25 -27 0 -11 12 -15 51
-15 48 0 50 1 43 23 -20 66 -74 117 -123 117 -18 0 -21 -6 -21 -43z m85 -27
c11 -12 13 -20 6 -20 -7 0 -9 -5 -5 -12 5 -8 0 -7 -12 2 -48 38 -55 50 -26 50
11 0 27 -9 37 -20z"/>
<path d="M1030 1254 c0 -50 54 -109 118 -129 21 -6 22 -3 22 42 0 37 -4 51
-20 61 -11 7 -20 19 -20 27 0 11 -12 15 -50 15 -39 0 -50 -3 -50 -16z m94 -43
c11 -12 13 -21 7 -25 -13 -9 -51 15 -51 31 0 19 25 16 44 -6z"/>
<path d="M2760 2870 c-19 -19 -20 -33 -20 -245 0 -212 1 -226 20 -245 28 -28
75 -26 105 5 l25 24 0 219 c0 215 0 219 -23 240 -30 28 -80 29 -107 2z m100
-245 l0 -235 -45 0 -45 0 0 235 0 235 45 0 45 0 0 -235z"/>
<path d="M2566 2768 c-13 -18 -16 -55 -16 -194 l0 -173 26 -20 c15 -12 35 -21
46 -21 22 0 60 18 70 34 4 6 8 90 8 187 0 201 -3 209 -78 209 -31 0 -45 -5
-56 -22z m104 -190 l0 -188 -45 0 -45 0 0 188 0 187 45 0 45 0 0 -187z"/>
<path d="M2399 2693 c-31 -8 -39 -45 -36 -171 2 -118 3 -125 27 -144 18 -15
33 -18 60 -14 55 9 60 24 60 172 0 129 -1 132 -25 148 -23 15 -52 19 -86 9z
m81 -163 l0 -140 -45 0 -45 0 0 140 0 140 45 0 45 0 0 -140z"/>
<path d="M2192 2588 c-8 -8 -12 -46 -12 -104 0 -105 8 -119 70 -119 62 0 70
14 70 119 0 58 -4 96 -12 104 -16 16 -100 16 -116 0z m108 -103 l0 -95 -50 0
-50 0 0 95 0 95 50 0 50 0 0 -95z"/>
<path d="M2462 2129 c-108 -21 -198 -89 -249 -189 -25 -49 -28 -65 -28 -156 0
-66 5 -111 14 -130 8 -16 21 -44 30 -62 13 -27 93 -107 133 -133 5 -3 21 -30
37 -60 20 -40 34 -55 52 -57 49 -5 54 7 57 153 3 124 2 138 -18 170 -12 19
-31 42 -43 50 -18 12 -22 25 -22 65 0 43 4 54 29 75 39 33 67 40 110 25 47
-15 76 -53 76 -99 0 -28 -10 -46 -40 -79 -22 -24 -43 -55 -46 -68 -3 -13 -4
-80 -3 -149 4 -135 9 -148 59 -143 16 2 30 13 39 33 8 17 18 32 23 33 4 2 8 9
8 16 0 6 19 29 43 49 72 64 88 81 104 112 9 17 19 32 22 35 17 13 36 102 35
170 -2 221 -202 382 -422 339z m202 -48 c62 -27 131 -93 161 -155 69 -141 24
-319 -105 -412 -51 -36 -90 -95 -90 -134 0 -15 -7 -20 -25 -20 l-25 0 0 144
c0 143 0 144 25 160 89 58 84 191 -8 241 -100 53 -224 -39 -203 -150 7 -38 50
-95 71 -95 11 0 15 -32 17 -150 l3 -150 -26 0 c-23 0 -27 5 -33 41 -5 29 -17
51 -40 73 -18 17 -55 51 -81 76 -69 64 -99 135 -100 230 0 66 5 85 33 143 46
92 115 149 217 178 46 13 160 2 209 -20z"/>
<path d="M2486 1834 c-44 -43 -19 -116 41 -122 36 -4 73 35 73 74 0 52 -78 85
-114 48z m76 -21 c24 -21 23 -45 -2 -68 -41 -37 -102 24 -64 66 21 23 42 24
66 2z"/>
<path d="M1939 1427 c-57 -39 -64 -63 -66 -251 -1 -93 -7 -174 -12 -179 -5 -5
-91 -8 -192 -8 -101 0 -193 -4 -204 -8 -36 -15 59 -23 232 -19 140 3 165 5
180 21 16 15 18 40 21 185 2 92 7 169 10 172 4 3 13 17 19 33 7 15 19 27 27
27 8 0 16 6 18 13 3 8 45 13 146 17 77 3 144 8 148 13 4 4 -60 7 -143 7 -140
0 -152 -2 -184 -23z"/>
<path d="M2436 1277 c-29 -21 -17 -77 24 -104 67 -46 163 -17 176 53 5 30 3
40 -11 51 -25 17 -165 18 -189 0z m188 -32 c-16 -54 -77 -85 -127 -66 -25 10
-70 68 -62 80 2 3 46 6 99 6 91 0 95 -1 90 -20z"/>
<path d="M2468 813 c-9 -2 -20 -13 -23 -24 -7 -21 -45 -34 -77 -26 -46 12
-148 -85 -129 -122 12 -23 -6 -79 -28 -86 -22 -7 -31 -33 -31 -98 0 -36 5 -51
21 -65 30 -25 48 -64 39 -87 -6 -18 16 -76 32 -83 3 -2 17 -12 30 -23 18 -16
33 -20 65 -16 22 2 47 1 55 -4 7 -5 9 -9 5 -9 -4 0 4 -11 19 -25 39 -36 126
-36 175 0 19 14 34 29 34 33 0 4 18 6 40 4 49 -3 101 26 116 65 5 15 9 45 7
67 -2 29 1 40 10 38 6 -1 12 2 12 8 0 5 9 19 20 30 16 16 20 33 20 80 0 48 -4
64 -20 77 -11 10 -20 23 -20 30 0 7 -6 12 -12 10 -9 -1 -12 11 -10 41 4 50
-20 89 -73 122 -28 17 -39 19 -50 10 -16 -13 -59 6 -87 39 -14 17 -28 21 -70
20 -29 -1 -61 -3 -70 -6z m136 -43 c7 -39 47 -56 88 -39 28 11 32 9 72 -30 42
-41 43 -44 30 -71 -19 -37 -2 -75 37 -89 28 -10 29 -12 29 -74 0 -63 -1 -65
-29 -70 -39 -8 -60 -57 -38 -91 15 -22 14 -25 -32 -70 -45 -44 -47 -45 -69
-30 -33 23 -81 2 -89 -38 -6 -29 -6 -29 -72 -26 -60 3 -66 5 -69 26 -2 12 -16
29 -33 37 -26 14 -32 14 -57 1 -28 -15 -30 -14 -72 29 -40 41 -42 45 -31 73
17 41 0 81 -39 88 -30 6 -30 7 -30 69 0 61 1 63 30 73 42 15 59 55 38 92 -16
28 -15 28 31 73 45 43 47 44 73 29 35 -21 75 -4 90 38 10 29 12 30 73 30 62 0
63 0 69 -30z"/>
<path d="M2435 681 c-201 -93 -169 -387 48 -442 86 -21 193 24 242 101 56 89
55 172 -5 262 -59 88 -188 124 -285 79z m157 -13 c22 -6 47 -22 55 -35 8 -13
21 -23 27 -23 22 0 66 -97 66 -145 0 -25 -5 -45 -11 -45 -5 0 -7 -4 -4 -10 16
-26 -108 -151 -135 -135 -5 3 -11 1 -15 -5 -3 -5 -26 -10 -51 -10 -27 0 -43 4
-39 10 3 5 0 7 -9 4 -17 -7 -91 40 -91 59 -1 6 -6 11 -12 10 -13 -3 -53 87
-53 119 0 41 20 99 32 92 7 -4 8 -2 4 4 -4 7 -2 20 3 29 6 10 11 14 11 10 0
-5 14 7 30 25 49 54 115 69 192 46z"/>
<path d="M2442 610 c-48 -29 -72 -75 -72 -137 0 -29 7 -68 16 -86 29 -60 116
-95 189 -76 22 6 41 11 43 10 1 -1 11 8 21 18 79 79 69 209 -19 268 -44 30
-131 32 -178 3z m150 -16 c46 -22 70 -59 76 -114 15 -156 -190 -209 -264 -68
-33 63 -2 146 66 180 43 22 80 23 122 2z"/>
</g>
</svg>
